<?xml version="1.0" encoding="utf-8"?>
<svg width="440" height="100" viewBox="0 0 440 100" fill="none" xmlns="http://www.w3.org/2000/svg">
  <path d="M 100.141 49.449 C 100.141 77.062 77.754 99.449 50.141 99.449 C 22.528 99.449 0.141 77.062 0.141 49.449 C 0.141 21.836 22.528 -0.551 50.141 -0.551 C 77.759 -0.551 100.141 21.836 100.141 49.449 Z" fill="#2081E2"/>
  <circle style="fill: rgb(122, 185, 232);" cx="50.141" cy="49.449" r="50"/>
  <path style="fill: rgb(87, 154, 223);" d="M 50.141 -0.551 L 50.141 99.449 C 77.755 99.449 100.141 77.063 100.141 49.449 C 100.141 21.835 77.755 -0.551 50.141 -0.551 Z"/>
  <path style="fill: rgb(242, 242, 244);" d="M 50.141 76.235 C 35.371 76.235 23.355 64.219 23.355 49.449 C 23.355 34.679 35.371 22.663 50.141 22.663 C 64.911 22.663 76.927 34.679 76.927 49.449 C 76.927 64.219 64.911 76.235 50.141 76.235 Z M 50.141 33.378 C 41.279 33.378 34.07 40.587 34.07 49.449 C 34.07 58.311 41.279 65.52 50.141 65.52 C 59.003 65.52 66.212 58.311 66.212 49.449 C 66.212 40.587 59.003 33.378 50.141 33.378 Z"/>
  <path style="fill: rgb(223, 223, 225);" d="M 50.141 22.663 L 50.141 33.378 C 59.003 33.378 66.212 40.587 66.212 49.449 C 66.212 58.311 59.003 65.52 50.141 65.52 L 50.141 76.235 C 64.911 76.235 76.927 64.219 76.927 49.449 C 76.927 34.679 64.911 22.663 50.141 22.663 Z"/>
  <g transform="matrix(0.195313, 0, 0, 0.195313, 0.140892, -0.551003)" style=""/>
  <g transform="matrix(0.195313, 0, 0, 0.195313, 0.140892, -0.551003)" style=""/>
  <g transform="matrix(0.195313, 0, 0, 0.195313, 0.140892, -0.551003)" style=""/>
  <g transform="matrix(0.195313, 0, 0, 0.195313, 0.140892, -0.551003)" style=""/>
  <g transform="matrix(0.195313, 0, 0, 0.195313, 0.140892, -0.551003)" style=""/>
  <g transform="matrix(0.195313, 0, 0, 0.195313, 0.140892, -0.551003)" style=""/>
  <g transform="matrix(0.195313, 0, 0, 0.195313, 0.140892, -0.551003)" style=""/>
  <g transform="matrix(0.195313, 0, 0, 0.195313, 0.140892, -0.551003)" style=""/>
  <g transform="matrix(0.195313, 0, 0, 0.195313, 0.140892, -0.551003)" style=""/>
  <g transform="matrix(0.195313, 0, 0, 0.195313, 0.140892, -0.551003)" style=""/>
  <g transform="matrix(0.195313, 0, 0, 0.195313, 0.140892, -0.551003)" style=""/>
  <g transform="matrix(0.195313, 0, 0, 0.195313, 0.140892, -0.551003)" style=""/>
  <g transform="matrix(0.195313, 0, 0, 0.195313, 0.140892, -0.551003)" style=""/>
  <g transform="matrix(0.195313, 0, 0, 0.195313, 0.140892, -0.551003)" style=""/>
  <g transform="matrix(0.195313, 0, 0, 0.195313, 0.140892, -0.551003)" style=""/>
  <path d="M 154.234 21.622 L 146.585 30.01 Q 140.545 26.446 137.894 26.446 Q 135.851 26.446 134.374 27.989 Q 132.896 29.531 132.896 31.661 Q 132.896 35.876 140.545 38.962 Q 146.151 41.352 149.019 43.286 Q 151.887 45.219 153.821 48.653 Q 155.755 52.086 155.755 56.084 Q 155.755 63.428 149.823 68.86 Q 143.891 74.292 135.808 74.292 Q 126.943 74.292 118.295 65.948 L 126.378 56.518 Q 131.81 62.124 136.547 62.124 Q 138.763 62.124 140.805 60.147 Q 142.848 58.17 142.848 55.997 Q 142.848 51.521 133.418 48.131 Q 128.029 46.176 125.769 44.459 Q 123.509 42.742 121.967 39.461 Q 120.424 36.18 120.424 32.747 Q 120.424 25.142 125.378 20.406 Q 130.332 15.669 138.328 15.669 Q 147.802 15.669 154.234 21.622 Z M 198.859 57.474 L 172.22 57.474 Q 172.438 61.081 174.589 63.341 Q 176.74 65.601 179.608 65.601 Q 184.736 65.601 187.648 60.951 L 197.86 64.341 Q 192.167 74.292 180.173 74.292 Q 171.351 74.292 166.136 68.947 Q 160.921 63.602 160.921 54.563 Q 160.921 46.436 166.419 40.917 Q 171.916 35.398 179.956 35.398 Q 188.039 35.398 193.449 41.2 Q 198.859 47.001 198.859 55.693 Z M 172.307 50 L 187.343 50 Q 185.779 43.003 180.173 43.003 Q 176.957 43.003 174.849 44.828 Q 172.742 46.654 172.307 50 Z M 231.493 73.51 L 231.493 67.122 L 231.32 67.122 Q 228.712 70.859 226.061 72.532 Q 223.41 74.205 219.499 74.205 Q 212.937 74.205 208.331 68.556 Q 203.724 62.906 203.724 54.823 Q 203.724 46.827 208.635 41.113 Q 213.546 35.398 220.282 35.398 Q 223.497 35.398 226.061 36.832 Q 228.625 38.266 231.493 41.395 L 231.493 36.224 L 242.618 36.224 L 242.618 73.51 Z M 223.324 46.523 Q 220.021 46.523 217.805 49.152 Q 215.588 51.781 215.588 55.78 Q 215.588 59.517 217.696 61.798 Q 219.804 64.08 223.237 64.08 Q 226.539 64.08 228.886 61.451 Q 231.233 58.822 231.233 55.084 Q 231.233 51.608 228.886 49.065 Q 226.539 46.523 223.324 46.523 Z M 254.442 16.451 L 273.954 16.451 Q 281.82 16.451 286.643 21.036 Q 291.467 25.62 291.467 33.095 Q 291.467 38.006 289.099 42.416 Q 286.73 46.827 281.95 49 Q 277.17 51.173 273.78 51.26 L 266.653 51.434 L 266.653 73.51 L 254.442 73.51 Z M 266.479 26.707 L 266.479 41.308 L 271.26 41.308 Q 274.345 41.308 276.54 39.092 Q 278.734 36.876 278.734 33.834 Q 278.734 30.357 276.257 28.445 Q 273.78 26.533 269.217 26.533 Z M 297.221 54.91 Q 297.221 46.262 302.74 40.787 Q 308.259 35.311 316.907 35.311 Q 324.946 35.311 330.4 40.896 Q 335.854 46.48 335.854 54.737 Q 335.854 63.167 330.4 68.73 Q 324.946 74.292 316.733 74.292 Q 307.477 74.292 302.349 68.404 Q 297.221 62.515 297.221 54.91 Z M 324.903 54.91 Q 324.903 51.13 322.426 48.305 Q 319.949 45.48 316.646 45.48 Q 313.213 45.48 310.736 48.131 Q 308.259 50.782 308.259 54.476 Q 308.259 58.517 310.714 61.342 Q 313.169 64.167 316.646 64.167 Q 319.949 64.167 322.426 61.407 Q 324.903 58.648 324.903 54.91 Z M 353.391 36.137 L 353.391 41.656 L 353.565 41.656 Q 355.216 38.875 357.411 37.245 Q 359.605 35.615 361.474 35.615 Q 362.604 35.615 363.516 35.789 L 363.516 47.957 Q 362.126 47.697 360.779 47.697 Q 357.345 47.697 355.455 50.108 Q 353.565 52.52 353.565 56.866 L 353.565 73.51 L 342.266 73.51 L 342.266 36.137 Z M 372.858 23.317 L 383.983 23.317 L 383.983 36.137 L 389.328 36.137 L 389.328 46.349 L 383.983 46.349 L 383.983 73.51 L 372.858 73.51 L 372.858 46.349 L 368.599 46.349 L 368.599 36.137 L 372.858 36.137 Z" style="fill: rgb(4, 17, 29); white-space: pre;"/>
</svg>